# AST/ASF file generated using VICON BodyLanguage
# -----------------------------------------------
:version 1.10
:name VICON
:units
  mass 1.0
  length 0.45
  angle deg
:documentation
   .ast/.asf automatically generated from VICON data using
   VICON BodyBuilder and BodyLanguage model FoxedUp or BRILLIANT.MOD
:root
   order TX TY TZ RX RY RZ
   axis XYZ
   position 0 0 0  
   orientation 0 0 0 
:bonedata
  begin
     id 1 
     name lhipjoint
     direction 0.677091 -0.635792 0.370561 
     length 2.74323 
     axis 0 0 0  XYZ
  end
  begin
     id 2 
     name lfemur
     direction 0.34202 -0.939693 0  
     length 7.44995  
     axis 0 0 20  XYZ
    dof rx ry rz
    limits (-160.0 20.0)
           (-70.0 70.0)
           (-60.0 70.0)
  end
  begin
     id 3 
     name ltibia
     direction 0.34202 -0.939693 0   
     length 7.34467   
     axis 0 0 20   XYZ
    dof rx
    limits (-10.0 170.0)
  end
  begin
     id 4 
     name lfoot
     direction 0.101953 -0.280114 0.954537   
     length 1.72105   
     axis -90 7.62852e-016 20   XYZ
    dof rx rz
    limits (-45.0 90.0)
           (-70.0 20.0)
  end
  begin
     id 5 
     name ltoes
     direction 1.53537e-011 -4.21915e-011 1   
     length 0.865872   
     axis -90 7.62852e-016 20   XYZ
    dof rx
    limits (-90.0 20.0)
  end
  begin
     id 6 
     name rhipjoint
     direction -0.695735 -0.620586 0.361699   
     length 2.81045  
     axis 0 0 0  XYZ 
  end
  begin
     id 7 
     name rfemur
     direction -0.34202 -0.939693 0   
     length 7.29387   
     axis 0 0 -20   XYZ
    dof rx ry rz
    limits (-160.0 20.0)
           (-70.0 70.0)
           (-70.0 60.0)
  end
  begin
     id 8 
     name rtibia
     direction -0.34202 -0.939693 0   
     length 7.44935   
     axis 0 0 -20   XYZ
    dof rx
    limits (-10.0 170.0)
 end
 begin
     id 9 
     name rfoot
     direction -0.104163 -0.286184 0.952496   
     length 1.77731  
     axis -90 -7.62852e-016 -20   XYZ
    dof rx rz
    limits (-45.0 90.0)
           (-20.0 70.0)
  end
  begin
     id 10 
     name rtoes
     direction -1.5355e-011 -4.21888e-011 1   
     length 0.892424   
     axis -90 -7.62852e-016 -20   XYZ
    dof rx
    limits (-90.0 20.0)
  end
  begin
     id 11 
     name lowerback
     direction 0.0100202 0.997226 -0.0737589   
     length 2.16892   
     axis 0 0 0   XYZ
    dof rx ry rz
    limits (-20.0 45.0)
           (-30.0 30.0)
           (-30.0 30.0)
  end
  begin
     id 12 
     name upperback
     direction 0.00432398 0.999988 -0.00215019   
     length 2.17326   
     axis 0 0 0   XYZ
    dof rx ry rz
    limits (-20.0 45.0)
           (-30.0 30.0)
           (-30.0 30.0)
  end
  begin
     id 13 
     name thorax
     direction -0.00195047 0.999485 0.0320434   
     length 2.18139   
     axis 0 0 0   XYZ
    dof rx ry rz
    limits (-20.0 45.0)
           (-30.0 30.0)
           (-30.0 30.0)
  end
  begin
     id 14 
     name lowerneck
     direction 0.00782762 0.986241 0.165128   
     length 1.88415   
     axis 0 0 0   XYZ
    dof rx ry rz
    limits (-20.0 45.0)
           (-30.0 30.0)
           (-30.0 30.0)
  end
  begin
     id 15 
     name upperneck
     direction 0.00988667 0.981098 -0.193258   
     length 1.9242   
     axis 0 0 0   XYZ
    dof rx ry rz
    limits (-20.0 45.0)
           (-30.0 30.0)
           (-30.0 30.0)
  end
  begin
     id 16
     name head
     direction 0.00252199 0.996513 -0.0833958  
     length 1.93887  
     axis 0 0 0   XYZ
    dof rx ry rz
    limits (-20.0 45.0)
           (-30.0 30.0)
           (-30.0 30.0)
  end
  begin
     id 17 
     name lclavicle
     direction 0.929492 0.368193 -0.0218667  
     length 3.5955  
     axis 0 0 0   XYZ
    dof ry rz
    limits (-20.0 10.0)
           (0.0 20.0)
  end
  begin
     id 18 
     name lhumerus
     direction 1 -4.48972e-011 1.41911e-027   
     length 5.2795   
     axis 180 -30 -90   XYZ
    dof rx ry rz
    limits (-60.0 90.0)
           (-90.0 90.0)
           (-90.0 90.0)
  end
  begin
     id 19
     name lradius
     direction 1 -4.48963e-011 7.05772e-027   
     length 3.53504   
     axis 180 -30 -90   XYZ
    dof rx
    limits (-10.0 170.0)
  end
  begin
     id 20
     name lwrist
     direction 1 -4.48957e-011 9.54866e-027   
     length 1.76752   
     axis -7.69462e-015 90 90   XYZ
    dof ry
    limits (-180.0 0.0)
 end
  begin
     id 21 
     name lhand
     direction 1 -4.48979e-011 1.90973e-026   
     length 0.667948   
     axis -1.21857e-014 90 90   XYZ
    dof rx rz
    limits (-90.0 90.0)
           (-45.0 45.0)
  end
  begin
     id 22 
     name lfingers
     direction 1 -4.48987e-011 3.81946e-026   
     length 0.538517   
     axis -2.43714e-014 90 90   XYZ
    dof rx
    limits (0.0 90.0)
  end
  begin
     id 23
     name lthumb
     direction 0.707107 -6.34962e-011 0.707107   
     length 0.773206   
     axis -90 45 2.85299e-015   XYZ
    dof rx rz
    limits (-45.0 45.0)
           (-45.0 45.0)
  end
  begin
     id 24 
     name rclavicle
     direction -0.898763 0.414256 -0.143584   
     length 3.5176  
     axis 0 0 0   XYZ 
    dof ry rz
    limits (-10.0 20.0)
           (-20.0 0.0)
  end
  begin
     id 25 
     name rhumerus
     direction -1 -4.48971e-011 1.129e-027  
     length 5.25035   
     axis 180 30 90   XYZ
    dof rx ry rz
    limits (-90.0 60.0)
           (-90.0 90.0)
           (-90.0 90.0)
  end
  begin
     id 26 
     name rradius
     direction -1 -4.48955e-011 6.34664e-027   
     length 3.58884   
     axis 180 30 90   XYZ
    dof rx
    limits (-10.0 170.0)
  end
  begin
     id 27 
     name rwrist
     direction -1 -4.48966e-011 9.54866e-027   
     length 1.79442   
     axis -7.69462e-015 -90 -90   XYZ
    dof ry
    limits (-180.0 0.0)
  end
  begin
     id 28
     name rhand
     direction -1 -4.48973e-011 1.90973e-026   
     length 0.779235   
     axis -1.21857e-014 -90 -90   XYZ
    dof rx rz
    limits (-90.0 90.0)
           (-45.0 45.0)
  end
  begin
     id 29
     name rfingers
     direction -1 -4.48984e-011 3.81946e-026   
     length 0.62824   
     axis -2.43714e-014 -90 -90   XYZ
    dof rx
    limits (0.0 90.0)
  end
  begin
     id 30
     name rthumb
     direction -0.707107 -6.34968e-011 0.707107   
     length 0.90203   
     axis -90 -45 -2.85299e-015   XYZ
    dof rx rz
    limits (-45.0 45.0)
           (-45.0 45.0)
  end
:hierarchy
  begin
    root lhipjoint rhipjoint lowerback
    lhipjoint lfemur
    lfemur ltibia
    ltibia lfoot
    lfoot ltoes
    rhipjoint rfemur
    rfemur rtibia
    rtibia rfoot
    rfoot rtoes
    lowerback upperback
    upperback thorax
    thorax lowerneck lclavicle rclavicle
    lowerneck upperneck
    upperneck head
    lclavicle lhumerus
    lhumerus lradius
    lradius lwrist
    lwrist lhand lthumb
    lhand lfingers
    rclavicle rhumerus
    rhumerus rradius
    rradius rwrist
    rwrist rhand rthumb
    rhand rfingers
  end

#!OML:ASF I:\Random Stuff\random\construction\7_22_03\Session 2\subj1.ASF
:FULLY-SPECIFIED
:DEGREES
125
root 5.41309 18.5792 -10.1457 3.53295 9.35845 -5.04971
lowerback 1.34262 1.566 1.80847
upperback -1.48436 2.12878 -0.246453
thorax -2.19949 1.03177 -1.33293
lowerneck -21.0586 -4.36318 -5.09735
upperneck 32.2534 -6.53713 5.7135
head 15.1859 -2.55962 2.02213
rclavicle 3.67255e-014 7.95139e-016
rhumerus -41.2076 15.7905 -91.2397
rradius 58.8912
rwrist -5.09183
rhand -15.4716 16.1383
rfingers 7.12502
rthumb 10.7099 -13.5687
lclavicle 3.67255e-014 7.95139e-016
lhumerus -36.7465 -8.80086 87.6341
lradius 39.6237
lwrist 29.3111
lhand -21.0468 62.1947
lfingers 7.12502
lthumb -174.671 87.8923
rfemur 2.63746 -2.75286 22.5128
rtibia 7.95139e-016
rfoot -5.10833 -9.35046
rtoes -56.1284
lfemur -15.9064 -10.7601 -13.2138
ltibia 27.6006
lfoot -17.0707 3.22098
ltoes -58.9758
126
root 5.4307 18.5835 -10.1515 3.56269 9.19766 -5.03354
lowerback 1.52757 1.48076 1.74263
upperback -1.43083 2.01411 -0.355606
thorax -2.25082 0.97438 -1.40921
lowerneck -20.7979 -4.66807 -5.3494
upperneck 32.3456 -6.91421 5.70748
head 15.2098 -2.75721 1.99334
rclavicle 1.05853e-014 7.95139e-016
rhumerus -41.0098 15.7838 -91.2876
rradius 59.1752
rwrist -4.77216
rhand -15.6598 16.9603
rfingers 7.12502
rthumb 10.5284 -12.756
lclavicle 1.05853e-014 7.95139e-016
lhumerus -36.7791 -9.2935 87.5978
lradius 40.7959
lwrist 30.1229
lhand -21.2626 62.5175
lfingers 7.12502
lthumb -174.879 87.5643
rfemur 2.47078 -2.59264 22.4564
rtibia -7.15625e-015
rfoot -4.65935 -9.43751
rtoes -56.7805
lfemur -15.8678 -10.7899 -13.2999
ltibia 27.5265
lfoot -17.0249 3.4405
ltoes -59.0207
127
root 5.4461 18.5861 -10.1626 3.55562 9.06883 -4.94731
lowerback 1.84263 1.35484 1.45658
upperback -1.37088 1.8421 -0.391759
thorax -2.38015 0.891857 -1.28845
lowerneck -20.5848 -4.90133 -5.66353
upperneck 32.4779 -7.14139 5.64597
head 15.2528 -2.90606 1.98156
rclavicle -1.59276e-014 1.27222e-014
rhumerus -40.6222 15.8378 -91.2512
rradius 59.2497
rwrist -4.38571
rhand -15.8079 17.3926
rfingers 7.12502
rthumb 10.3854 -12.331
lclavicle -1.59276e-014 1.27222e-014
lhumerus -36.8113 -9.63658 87.6204
lradius 41.9886
lwrist 30.8693
lhand -21.1839 62.7423
lfingers 7.12502
lthumb -174.803 87.3414
rfemur 2.3159 -2.47002 22.3469
rtibia -1.11319e-014
rfoot -4.13273 -9.52142
rtoes -57.6619
lfemur -15.8196 -10.4803 -13.4741
ltibia 27.4688
lfoot -16.9517 3.31479
ltoes -59.0584
128
root 5.46126 18.5854 -10.177 3.58725 8.96553 -4.74425
lowerback 2.17724 1.22512 0.938726
upperback -1.32036 1.6566 -0.387966
thorax -2.53676 0.806947 -0.995477
lowerneck -20.4119 -5.10371 -6.0521
upperneck 32.649 -7.28309 5.55195
head 15.3194 -3.0317 1.98569
rclavicle 3.35946e-014 -6.36111e-015
rhumerus -40.225 15.9061 -91.0757
rradius 59.3149
rwrist -4.04414
rhand -15.9782 17.5649
rfingers 7.12502
rthumb 10.2212 -12.1668
lclavicle 3.35946e-014 -6.36111e-015
lhumerus -36.813 -9.99209 87.7712
lradius 43.1264
lwrist 31.6799
lhand -21.236 62.8424
lfingers 7.12502
lthumb -174.854 87.2401
rfemur 2.17314 -2.38015 22.1021
rtibia -7.15625e-015
rfoot -3.69871 -9.5772
rtoes -58.2475
lfemur -15.8265 -10.1956 -13.7703
ltibia 27.4233
lfoot -16.8474 3.17755
ltoes -59.0708
129
root 5.47545 18.5863 -10.1943 3.70735 8.84364 -4.48802
lowerback 2.49689 1.1201 0.326662
upperback -1.32657 1.49647 -0.399879
thorax -2.74191 0.736613 -0.665656
lowerneck -20.2446 -5.2648 -6.44293
upperneck 32.8283 -7.36766 5.47083
head 15.3885 -3.13173 2.00696
rclavicle -1.09332e-015 0
rhumerus -40.0105 15.9264 -90.879
rradius 59.4893
rwrist -3.74024
rhand -16.2156 17.7625
rfingers 7.12502
rthumb 9.9922 -11.9803
lclavicle -1.09332e-015 0
lhumerus -36.8066 -10.4937 87.9804
lradius 44.2214
lwrist 32.5839
lhand -21.4626 63.0049
lfingers 7.12502
lthumb -175.072 87.0724
rfemur 1.95991 -2.27327 21.7918
rtibia 1.59028e-014
rfoot -3.39098 -9.57209
rtoes -58.7577
lfemur -15.9531 -9.87014 -14.1058
ltibia 27.3943
lfoot -16.7156 2.97679
ltoes -59.0754
